<svg width="28" height="28" viewBox="0 0 28 28" fill="none" xmlns="http://www.w3.org/2000/svg">
<path d="M12 13V19M16 13V19M6 9H22M21 9L20.133 21.142C20.0971 21.6466 19.8713 22.1188 19.5011 22.4636C19.1309 22.8083 18.6439 23 18.138 23H9.862C9.35614 23 8.86907 22.8083 8.49889 22.4636C8.1287 22.1188 7.90292 21.6466 7.867 21.142L7 9H21ZM17 9V6C17 5.73478 16.8946 5.48043 16.7071 5.29289C16.5196 5.10536 16.2652 5 16 5H12C11.7348 5 11.4804 5.10536 11.2929 5.29289C11.1054 5.48043 11 5.73478 11 6V9H17Z" stroke="white" stroke-width="1.5" stroke-linecap="round" stroke-linejoin="round"/>
</svg>
