<svg width="40" height="41" viewBox="0 0 40 41" fill="none" xmlns="http://www.w3.org/2000/svg">
<path d="M8.33333 9.66666C7.11776 9.66666 5.95197 10.1495 5.09243 11.0091C4.23289 11.8686 3.75 13.0344 3.75 14.25V26.75C3.75 27.9656 4.23289 29.1314 5.09243 29.9909C5.95197 30.8504 7.11776 31.3333 8.33333 31.3333H22.5C23.7156 31.3333 24.8814 30.8504 25.7409 29.9909C26.6004 29.1314 27.0833 27.9656 27.0833 26.75V24.0933L32.7817 29.1683C34.1233 30.3633 36.25 29.41 36.25 27.6117V12.775C36.25 10.975 34.1233 10.0233 32.7817 11.2183L27.0833 16.2933V14.25C27.0833 13.0344 26.6004 11.8686 25.7409 11.0091C24.8814 10.1495 23.7156 9.66666 22.5 9.66666H8.33333Z" fill="white" fill-opacity="0.8"/>
</svg>
